<svg width="24" height="24" viewBox="0 0 64 64" fill="none" xmlns="http://www.w3.org/2000/svg">
<path d="M0 32C0 14.3269 14.3269 0 32 0C49.6731 0 64 14.3269 64 32C64 49.6731 49.6731 64 32 64C14.3269 64 0 49.6731 0 32Z" fill="#FFCD35"/>
<path d="M36.2157 46.097V50.8817L31.9392 53.3333L27.7843 50.8817V46.097L31.9392 48.5487L36.2157 46.097ZM13.3333 29.5483L17.4882 32V40.2051L24.6428 44.3769V49.1616L13.3333 42.6568V29.5483ZM50.5451 29.5483V42.6765L39.114 49.1813V44.3967L46.2686 40.2249V32.0198L50.5451 29.5483ZM39.0937 23.0436L43.3703 25.4952V30.2799L36.2157 34.4517V42.7754L32.0608 45.2271L27.9262 42.7754V34.4319L20.5081 30.2601V25.4754L24.7847 23.0238L31.9392 27.1956L39.0937 23.0436ZM20.5081 33.7003L24.663 36.152V40.9367L20.5081 38.485V33.7003ZM43.3703 33.7003V38.485L39.2153 40.9367V36.152L43.3703 33.7003ZM17.4882 18.8718L21.7647 21.3234L17.4882 23.7751V28.5598L13.3333 26.1081V21.3234L17.4882 18.8718ZM46.3902 18.8718L50.6667 21.3234V26.1081L46.3902 28.5598V23.7751L42.2353 21.3234L46.3902 18.8718ZM31.9392 18.8718L36.2157 21.3234L31.9392 23.7751L27.7843 21.3234L31.9392 18.8718ZM31.9392 10.6667L43.3703 17.1715L39.2153 19.6231L32.0608 15.4513L24.7644 19.6231L20.6095 17.1715L31.9392 10.6667Z" fill="white"/>
</svg>
