<svg width="24" height="24" viewBox="0 0 100 101" fill="none" xmlns="http://www.w3.org/2000/svg">
<path d="M100 50.7706C100 51.2827 99.9928 51.7947 99.9783 52.3067H75.659V51.1876H52.2523C52.2523 50.9535 52.2596 50.7194 52.2596 50.4927C52.2596 50.2659 52.2596 50.0245 52.2523 49.7978H75.659V48.686H99.9566C99.9855 49.3809 100 50.0758 100 50.7706ZM51.8395 45.7309L74.7465 42.8855L74.8841 43.9973L99.073 40.991C98.8413 39.7914 98.566 38.6065 98.2546 37.4434L74.4424 40.4059L74.58 41.5177L51.5643 44.3777C51.6657 44.8312 51.7598 45.2847 51.8395 45.7455V45.7309ZM50.6446 41.2543L72.5377 35.7318L72.8056 36.8144L96.0385 30.9554C95.5605 29.8216 95.0463 28.7025 94.4959 27.6126L71.9438 33.3034L72.2118 34.3859L50.1376 39.9597C50.3187 40.3912 50.4852 40.8228 50.6446 41.2617V41.2543ZM48.7036 37.0631L69.17 29.2584L69.5611 30.3044L91.2152 22.0462C90.5127 21.0075 89.774 19.9981 88.9919 19.018L68.2937 26.9104L68.6848 27.9564L47.9722 35.8562C48.2257 36.2512 48.4719 36.6535 48.7036 37.0631ZM46.0168 33.1863L64.0933 23.67L64.6002 24.6648L84.5887 14.1391C83.6689 13.2394 82.7129 12.3836 81.728 11.5571L62.9418 21.4464L63.4487 22.4412L45.0681 32.1184C45.3867 32.4695 45.7054 32.8206 46.0096 33.1863H46.0168ZM41.657 29.0024L58.0243 18.4913L58.6182 19.4349L76.6802 7.83394C75.5432 7.10248 74.3844 6.42222 73.1895 5.78585L56.699 16.3774L57.2929 17.321L40.4548 28.1319C40.8676 28.4099 41.2659 28.7025 41.6642 29.0024H41.657ZM37.7897 26.5593L51.5064 15.1997L52.2089 16.0629L67.6564 3.26231C66.3456 2.7576 64.9986 2.3041 63.637 1.90911L49.9348 13.2614L50.6373 14.1245L36.4209 25.901C36.8844 26.1058 37.3407 26.3252 37.7897 26.5593ZM32.6695 24.5478L43.5038 13.6564L44.2787 14.4463L58.0461 0.629056C56.5542 0.380359 55.0406 0.197494 53.5052 0.0804606L41.7656 11.8789L42.5406 12.6689L31.0979 24.1674C31.6266 24.2772 32.148 24.4015 32.6695 24.5478ZM26.6802 23.6335L35.3201 13.0566L36.1747 13.7661L47.4218 0C45.7126 0.0804606 44.0252 0.248696 42.3667 0.497393L33.4082 11.462L34.2627 12.1715L24.9059 23.6262C25.1666 23.6188 25.4345 23.6115 25.6952 23.6115C26.0284 23.6115 26.3543 23.6115 26.6802 23.6262V23.6335ZM21.502 23.948L28.1576 13.5466L29.0846 14.1538L37.1307 1.57264C35.2911 2.0554 33.4951 2.64057 31.7425 3.32083L26.0791 12.1788L27.0061 12.7859L19.6335 24.3137C20.2491 24.1674 20.872 24.0431 21.502 23.9407V23.948ZM15.7517 25.5645L20.5388 16.5017L21.5093 17.0284L27.8462 5.03976C25.8111 6.04186 23.8557 7.17562 21.9873 8.43373L18.3444 15.3241L19.3221 15.8507L13.6877 26.5154C14.354 26.1716 15.042 25.8571 15.7445 25.5718L15.7517 25.5645ZM11.6237 27.6931L13.6587 21.856L14.7016 22.2291L18.6559 10.8914C16.6498 12.5007 14.7668 14.2562 13.0214 16.1506L11.3195 21.0295L12.3624 21.4025L9.69728 29.039C10.3201 28.5635 10.9574 28.1173 11.6165 27.7004L11.6237 27.6931ZM6.54693 31.8697L7.44496 27.6272L8.52404 27.8613L10.3346 19.3179C8.4299 21.7609 6.74247 24.3869 5.30127 27.1591L6.10516 27.3347L4.45394 34.3567C5.09849 33.4862 5.80098 32.6524 6.54693 31.8697ZM2.81721 36.829V31.2114C1.47016 34.8029 0.514195 39.2721 0 43.6535C0.630069 41.2251 1.58604 38.9356 2.81721 36.829ZM0.0362109 57.4781C0.56489 61.2159 1.49189 64.822 2.781 68.2525V64.1052C1.59328 62.0571 0.659038 59.8334 0.0362109 57.4781ZM4.62775 66.8774L6.06895 73.6653L5.26506 73.8409C6.70626 76.6204 8.39369 79.2391 10.2984 81.6821L8.48783 73.1387L7.40875 73.3727L6.49623 69.0791C5.8372 68.3769 5.20713 67.6454 4.62775 66.8701V66.8774ZM9.64658 71.9245L12.3262 79.6048L11.2833 79.9778L12.9852 84.8567C14.7306 86.7512 16.6136 88.5067 18.6196 90.1159L14.6654 78.7782L13.6225 79.1513L11.5802 73.285C10.9212 72.8607 10.2767 72.4145 9.65382 71.9391L9.64658 71.9245ZM13.6443 74.4626L19.2932 85.1566L18.3155 85.6832L21.9583 92.5736C23.8268 93.8317 25.7822 94.9655 27.8172 95.9676L21.4803 83.9789L20.5026 84.5056L15.701 75.4208C14.9986 75.1356 14.3105 74.8137 13.637 74.4699L13.6443 74.4626ZM19.5901 76.6716L26.9699 88.2141L26.0429 88.8212L31.7063 97.6792C33.4589 98.3594 35.2549 98.9446 37.0944 99.4274L29.0484 86.8463L28.1214 87.4534L21.4586 77.0374C20.8285 76.935 20.1984 76.8106 19.5828 76.6643L19.5901 76.6716ZM24.8624 77.3738L34.2193 88.8285L33.3647 89.538L42.3233 100.503C43.9818 100.751 45.6692 100.92 47.3783 101L36.1312 87.2266L35.2766 87.9361L26.6367 77.3592C26.3253 77.3738 26.0067 77.3738 25.688 77.3738C25.4128 77.3738 25.1304 77.3738 24.8552 77.3592L24.8624 77.3738ZM31.0689 76.8326L42.5043 88.3238L41.7294 89.1138L53.469 100.912C55.0043 100.795 56.518 100.612 58.0098 100.364L44.2497 86.539L43.4676 87.3363L32.6405 76.4522C32.1263 76.5912 31.5976 76.7228 31.0689 76.8326ZM36.3992 75.1136L50.6011 86.8828L49.8986 87.7459L63.6008 99.0982C64.9623 98.7032 66.3094 98.2497 67.6202 97.745L52.1654 84.9444L51.4629 85.8076L37.7607 74.4553C37.3117 74.6894 36.8554 74.9088 36.3919 75.1136H36.3992ZM40.4258 72.8754L57.2422 83.679L56.6483 84.6226L73.1388 95.2141C74.3337 94.5778 75.4997 93.8902 76.6295 93.1661L58.5675 81.5651L57.9736 82.5087L41.628 72.0122C41.2297 72.3121 40.8314 72.6047 40.4186 72.8827L40.4258 72.8754ZM45.0608 68.8962L63.4198 78.5588L62.9128 79.5536L81.699 89.4429C82.684 88.6164 83.6399 87.7606 84.5597 86.8609L64.5713 76.3352L64.0643 77.33L46.0096 67.8283C45.7054 68.194 45.394 68.5524 45.0681 68.8962H45.0608ZM47.9649 65.1511L68.6486 73.0436L68.2575 74.0896L88.9557 81.982C89.7306 81.0019 90.4693 79.9925 91.179 78.9538L69.5249 70.6956L69.1338 71.7416L48.6964 63.9442C48.4647 64.3539 48.2184 64.7562 47.9649 65.1511ZM50.1304 61.055L72.1683 66.6141L71.9003 67.6966L94.4525 73.3874C95.0101 72.2975 95.5243 71.1784 96.0023 70.0446L72.7694 64.1856L72.5014 65.2682L50.6373 59.753C50.478 60.1918 50.3042 60.6234 50.1304 61.055ZM51.5643 56.637L74.5437 59.4896L74.4061 60.6015L98.2184 63.5639C98.5298 62.3935 98.805 61.2086 99.0368 60.0163L74.8479 57.01L74.7103 58.1218L51.8395 55.2764C51.7598 55.7373 51.6657 56.1908 51.5643 56.6443V56.637Z" fill="black"/>
</svg>
