<?xml version="1.0" encoding="UTF-8"?>
<svg xmlns="http://www.w3.org/2000/svg" viewBox="0 0 24 23.59">
  <defs>
    <style>
      .cls-1 {
      fill: #170703;
      }

      .cls-1, .cls-2, .cls-3 {
      stroke-width: 0px;
      }

      .cls-2 {
      fill: #e3c394;
      }

      .cls-3 {
      fill: #fbeedb;
      }
    </style>
  </defs>
  <g>
    <path class="cls-3" d="m22.29,16.02V2.1c-.02-1.16-.94-2.1-2.11-2.1H5.66C2.52.05,0,2.61,0,5.76c0,1.06.28,1.97.72,2.76.36.66.94,1.29,1.52,1.76.16.13.08.08.58.38.68.42,1.46.62,1.46.62v8.32c.01.39.05.77.15,1.12.32,1.17,1.14,2.07,2.24,2.51.46.18.99.31,1.54.31l11.6.04c2.31,0,4.19-1.88,4.19-4.2,0-1.39-.67-2.62-1.71-3.38Z"/>
    <path class="cls-2" d="m22.57,19.49c-.05,1.49-1.27,2.68-2.76,2.68l-7.99-.03c.64-.74,1.02-1.69,1.02-2.74,0-1.64-.98-2.77-.98-2.77h7.94c1.53,0,2.76,1.24,2.76,2.77v.09Z"/>
    <g>
      <path class="cls-1" d="m2.99,9.1c-.92-.87-1.57-1.99-1.57-3.34v-.14c.08-2.28,1.95-4.11,4.23-4.19h14.52c.38.01.69.29.69.67v12.29c.34.06.5.1.82.22.25.09.61.29.61.29V2.1c-.02-1.16-.94-2.1-2.11-2.1H5.66C2.52.05,0,2.61,0,5.76,0,7.59.83,9.15,2.2,10.25c.09.07.18.17.43.17.43,0,.73-.34.71-.71-.01-.31-.14-.42-.34-.61Z"/>
      <path class="cls-1" d="m19.81,15.2h-11.39c-.76,0-1.38.63-1.38,1.39v1.63c.02.76.67,1.41,1.43,1.41h.85v-1.41h-.85v-1.6h.46c1.44,0,2.5,1.34,2.5,2.77,0,1.27-1.15,2.89-3.09,2.76-1.72-.12-2.64-1.64-2.64-2.76V5.52c0-.63-.51-1.14-1.14-1.14h-1.14v1.42h.84s0,13.6,0,13.6c-.04,2.77,1.97,4.16,4.07,4.16l11.47.03c2.31,0,4.19-1.88,4.19-4.2s-1.88-4.2-4.19-4.2Zm2.76,4.29c-.05,1.49-1.27,2.68-2.76,2.68l-7.99-.03c.64-.74,1.02-1.69,1.02-2.74,0-1.64-.98-2.77-.98-2.77h7.94c1.53,0,2.76,1.24,2.76,2.77v.09Z"/>
      <path class="cls-1" d="m8.16,4.63h8.59c.39,0,.71.32.71.71h0c0,.39-.32.71-.71.71h-8.59v-1.42h0Z"/>
      <path class="cls-1" d="m8.16,11.32h8.59c.39,0,.71.32.71.71h0c0,.39-.32.71-.71.71h-8.59v-1.42h0Z"/>
      <path class="cls-1" d="m8.16,7.98h10.1c.39,0,.71.32.71.71h0c0,.39-.32.71-.71.71h-10.1v-1.42h0Z"/>
    </g>
  </g>
</svg>
